<svg xmlns="http://www.w3.org/2000/svg" width="96" height="96" viewBox="0 0 96 96" fill="none">
  <rect x="6" y="6" width="84" height="84" rx="18" fill="#0F172A" />
  <path fill="#FFFFFF" d="M48 29.6c-10.8 0-19.6 8.8-19.6 19.6 0 8.6 5.6 15.8 13.3 18.3 1 .2 1.4-.4 1.4-1v-3.6c-5.4 1.2-6.5-2.6-6.5-2.6-.9-2.3-2.2-2.9-2.2-2.9-1.8-1.2.1-1.2.1-1.2 2 .1 3 2.1 3 2.1 1.8 3 4.8 2.1 6 1.6.2-1.3.7-2.1 1.3-2.6-4.3-.5-8.8-2.2-8.8-9.8 0-2.2.8-4 2-5.4-.2-.5-.9-2.7.2-5.5 0 0 1.7-.5 5.6 2a19.4 19.4 0 0110.3 0c3.9-2.5 5.6-2 5.6-2 1.1 2.8.4 5 .2 5.5 1.2 1.4 2 3.2 2 5.4 0 7.7-4.6 9.3-8.9 9.8.7.6 1.4 1.8 1.4 3.6v5.3c0 .6.4 1.2 1.4 1 7.7-2.5 13.3-9.7 13.3-18.3 0-10.8-8.8-19.6-19.6-19.6z"/>
</svg>
