<svg xmlns="http://www.w3.org/2000/svg" width="96" height="96" viewBox="0 0 96 96" fill="none">
  <rect x="6" y="6" width="84" height="84" rx="16" fill="#111827" />
  <path fill="#FFFFFF" d="M32.4 26.6c-3.6.2-7.1.5-9.4 1.2a3.5 3.5 0 00-2.5 3.4v33.6c0 1.6 1.1 3.1 2.7 3.5 2.8.7 6.1 1 9.6 1.3 3.5.2 6.9.3 10.2.3 3.3 0 6.6-.1 10.2-.3 3.5-.3 6.8-.6 9.6-1.3a3.6 3.6 0 002.7-3.5V31.2c0-1.6-1-3-2.5-3.4-2.3-.7-5.7-1-9.4-1.2-3.6-.2-7.1-.3-10.6-.3-3.5 0-7 .1-10.6.3zm-1.5 5.4c2.7-.3 7.1-.6 12.1-.6 5 0 9.4.3 12.1.6l.5 22.7-14-24.3h-8.7l-.5 1.6-.5 22.3-6-1.2V32.6zm26.5 30.9c-2.8.3-7.2.6-12.1.6-4.9 0-9.3-.3-12.1-.6l-.6-22.8 13.9 24.4h8.8l.6-1.6.6-22.3 6 1.2v21c0 1-1.5 1.8-4.5 2.1z"/>
</svg>
